<svg width="54" height="50" viewBox="0 0 54 50" fill="none" xmlns="http://www.w3.org/2000/svg">
<rect width="54" height="50" rx="25" fill="#6582FC"/>
<path fill-rule="evenodd" clip-rule="evenodd" d="M31.6691 21.8346C31.6691 25.6092 28.6092 28.6691 24.8346 28.6691C21.0599 28.6691 18 25.6092 18 21.8346C18 18.0599 21.0599 15 24.8346 15C28.6092 15 31.6691 18.0599 31.6691 21.8346ZM30.6471 29.7684C29.0188 30.9634 27.0091 31.6691 24.8346 31.6691C19.4031 31.6691 15 27.266 15 21.8346C15 16.4031 19.4031 12 24.8346 12C30.266 12 34.6691 16.4031 34.6691 21.8346C34.6691 24.0091 33.9634 26.0188 32.7684 27.6471L38.097 32.9757C38.6828 33.5615 38.6828 34.5112 38.097 35.097C37.5112 35.6828 36.5615 35.6828 35.9757 35.097L30.6471 29.7684Z" fill="white"/>
</svg>
