<svg width="155" height="88" viewBox="0 0 155 88" fill="none" xmlns="http://www.w3.org/2000/svg">
<path d="M23.9716 21.1307C23.8352 19.7557 23.25 18.6875 22.2159 17.9261C21.1818 17.1648 19.7784 16.7841 18.0057 16.7841C16.8011 16.7841 15.7841 16.9545 14.9545 17.2955C14.125 17.625 13.4886 18.0852 13.0455 18.6761C12.6136 19.267 12.3977 19.9375 12.3977 20.6875C12.375 21.3125 12.5057 21.858 12.7898 22.3239C13.0852 22.7898 13.4886 23.1932 14 23.5341C14.5114 23.8636 15.1023 24.1534 15.7727 24.4034C16.4432 24.642 17.1591 24.8466 17.9205 25.017L21.0568 25.767C22.5795 26.108 23.9773 26.5625 25.25 27.1307C26.5227 27.6989 27.625 28.3977 28.5568 29.2273C29.4886 30.0568 30.2102 31.0341 30.7216 32.1591C31.2443 33.2841 31.5114 34.5739 31.5227 36.0284C31.5114 38.1648 30.9659 40.017 29.8864 41.5852C28.8182 43.142 27.2727 44.3523 25.25 45.2159C23.2386 46.0682 20.8125 46.4943 17.9716 46.4943C15.1534 46.4943 12.6989 46.0625 10.608 45.1989C8.52841 44.3352 6.90341 43.0568 5.73295 41.3636C4.57386 39.6591 3.96591 37.5511 3.90909 35.0398H11.0511C11.1307 36.2102 11.4659 37.1875 12.0568 37.9716C12.6591 38.7443 13.4602 39.3295 14.4602 39.7273C15.4716 40.1136 16.6136 40.3068 17.8864 40.3068C19.1364 40.3068 20.2216 40.125 21.142 39.7614C22.0739 39.3977 22.7955 38.892 23.3068 38.2443C23.8182 37.5966 24.0739 36.8523 24.0739 36.0114C24.0739 35.2273 23.8409 34.5682 23.375 34.0341C22.9205 33.5 22.25 33.0455 21.3636 32.6705C20.4886 32.2955 19.4148 31.9545 18.142 31.6477L14.3409 30.6932C11.3977 29.9773 9.07386 28.858 7.36932 27.3352C5.66477 25.8125 4.81818 23.7614 4.82955 21.1818C4.81818 19.0682 5.38068 17.2216 6.51705 15.642C7.66477 14.0625 9.23864 12.8295 11.2386 11.9432C13.2386 11.0568 15.5114 10.6136 18.0568 10.6136C20.6477 10.6136 22.9091 11.0568 24.8409 11.9432C26.7841 12.8295 28.2955 14.0625 29.375 15.642C30.4545 17.2216 31.0114 19.0511 31.0455 21.1307H23.9716ZM43.6122 11.0909V46H36.3509V11.0909H43.6122ZM56.8949 46.4943C55.2244 46.4943 53.7358 46.2045 52.429 45.625C51.1222 45.0341 50.0881 44.1648 49.3267 43.017C48.5767 41.858 48.2017 40.4148 48.2017 38.6875C48.2017 37.233 48.4688 36.0114 49.0028 35.0227C49.5369 34.0341 50.2642 33.2386 51.1847 32.6364C52.1051 32.0341 53.1506 31.5795 54.321 31.2727C55.5028 30.9659 56.7415 30.75 58.0369 30.625C59.5597 30.4659 60.7869 30.3182 61.7188 30.1818C62.6506 30.0341 63.3267 29.8182 63.7472 29.5341C64.1676 29.25 64.3778 28.8295 64.3778 28.2727V28.1705C64.3778 27.0909 64.0369 26.2557 63.3551 25.6648C62.6847 25.0739 61.7301 24.7784 60.4915 24.7784C59.1847 24.7784 58.1449 25.0682 57.3722 25.6477C56.5994 26.2159 56.0881 26.9318 55.8381 27.7955L49.1222 27.25C49.4631 25.6591 50.1335 24.2841 51.1335 23.125C52.1335 21.9545 53.4233 21.0568 55.0028 20.4318C56.5938 19.7955 58.4347 19.4773 60.5256 19.4773C61.9801 19.4773 63.3722 19.6477 64.7017 19.9886C66.0426 20.3295 67.2301 20.858 68.2642 21.5739C69.3097 22.2898 70.1335 23.2102 70.7358 24.3352C71.3381 25.4489 71.6392 26.7841 71.6392 28.3409V46H64.7528V42.3693H64.5483C64.1278 43.1875 63.5653 43.9091 62.8608 44.5341C62.1562 45.1477 61.3097 45.6307 60.321 45.983C59.3324 46.3239 58.1903 46.4943 56.8949 46.4943ZM58.9744 41.483C60.0426 41.483 60.9858 41.2727 61.804 40.8523C62.6222 40.4205 63.2642 39.8409 63.7301 39.1136C64.196 38.3864 64.429 37.5625 64.429 36.642V33.8636C64.2017 34.0114 63.8892 34.1477 63.4915 34.2727C63.1051 34.3864 62.6676 34.4943 62.179 34.5966C61.6903 34.6875 61.2017 34.7727 60.7131 34.8523C60.2244 34.9205 59.7812 34.983 59.3835 35.0398C58.5313 35.1648 57.7869 35.3636 57.1506 35.6364C56.5142 35.9091 56.0199 36.2784 55.6676 36.7443C55.3153 37.1989 55.1392 37.767 55.1392 38.4489C55.1392 39.4375 55.4972 40.1932 56.2131 40.7159C56.9403 41.2273 57.8608 41.483 58.9744 41.483ZM84.5341 30.8636V46H77.2727V19.8182H84.1932V24.4375H84.5C85.0795 22.9148 86.0511 21.7102 87.4148 20.8239C88.7784 19.9261 90.4318 19.4773 92.375 19.4773C94.1932 19.4773 95.7784 19.875 97.1307 20.6705C98.483 21.4659 99.5341 22.6023 100.284 24.0795C101.034 25.5455 101.409 27.2955 101.409 29.3295V46H94.1477V30.625C94.1591 29.0227 93.75 27.7727 92.9205 26.875C92.0909 25.9659 90.9489 25.5114 89.4943 25.5114C88.517 25.5114 87.6534 25.7216 86.9034 26.142C86.1648 26.5625 85.5852 27.1761 85.1648 27.983C84.7557 28.7784 84.5455 29.7386 84.5341 30.8636ZM118.928 56.3636C116.575 56.3636 114.558 56.0398 112.876 55.392C111.206 54.7557 109.876 53.8864 108.888 52.7841C107.899 51.6818 107.257 50.4432 106.962 49.0682L113.678 48.1648C113.882 48.6875 114.206 49.1761 114.649 49.6307C115.092 50.0852 115.678 50.4489 116.405 50.7216C117.143 51.0057 118.041 51.1477 119.098 51.1477C120.678 51.1477 121.979 50.7614 123.001 49.9886C124.036 49.2273 124.553 47.9489 124.553 46.1534V41.3636H124.246C123.928 42.0909 123.45 42.7784 122.814 43.4261C122.178 44.0739 121.359 44.6023 120.359 45.0114C119.359 45.4205 118.166 45.625 116.78 45.625C114.814 45.625 113.024 45.1705 111.411 44.2614C109.808 43.3409 108.53 41.9375 107.575 40.0511C106.632 38.1534 106.161 35.7557 106.161 32.858C106.161 29.892 106.643 27.4148 107.609 25.4261C108.575 23.4375 109.859 21.9489 111.462 20.9602C113.075 19.9716 114.842 19.4773 116.763 19.4773C118.229 19.4773 119.456 19.7273 120.445 20.2273C121.433 20.7159 122.229 21.3295 122.831 22.0682C123.445 22.7955 123.916 23.5114 124.246 24.2159H124.518V19.8182H131.729V46.2557C131.729 48.483 131.183 50.3466 130.092 51.8466C129.001 53.3466 127.49 54.4716 125.558 55.2216C123.638 55.983 121.428 56.3636 118.928 56.3636ZM119.081 40.1705C120.251 40.1705 121.24 39.8807 122.047 39.3011C122.865 38.7102 123.49 37.8693 123.922 36.7784C124.365 35.6761 124.587 34.358 124.587 32.8239C124.587 31.2898 124.371 29.9602 123.939 28.8352C123.507 27.6989 122.882 26.8182 122.064 26.1932C121.246 25.5682 120.251 25.2557 119.081 25.2557C117.888 25.2557 116.882 25.5795 116.064 26.2273C115.246 26.8636 114.626 27.75 114.206 28.8864C113.786 30.0227 113.575 31.3352 113.575 32.8239C113.575 34.3352 113.786 35.642 114.206 36.7443C114.638 37.8352 115.257 38.6818 116.064 39.2841C116.882 39.875 117.888 40.1705 119.081 40.1705Z" fill="#6582FC"/>
<path d="M122.047 57.8496C122.047 66.6862 129.21 73.8496 138.047 73.8496C146.883 73.8496 154.047 66.6862 154.047 57.8496C154.047 49.0131 146.883 41.8496 138.047 41.8496C129.21 41.8496 122.047 49.0131 122.047 57.8496ZM0.680745 60.5205C28.1101 74.5495 49.6441 81.1471 71.0455 80.8393C92.4212 80.5319 113.291 73.338 139.368 60.5429L136.725 55.1563C110.909 67.8234 90.9998 74.5517 70.9593 74.8399C50.9445 75.1278 30.4252 68.9943 3.41288 55.1787L0.680745 60.5205Z" fill="#6582FC"/>
</svg>
